<?xml version="1.0" encoding="UTF-8" standalone="no"?>
<!-- Created with Inkscape (http://www.inkscape.org/) -->

<svg
   version="1.1"
   id="svg1"
   width="116"
   height="80"
   viewBox="0 0 116 80"
   sodipodi:docname="andrademartesLogoBranco.svg"
   inkscape:version="1.4.3 (0d15f75, 2025-12-25)"
   xmlns:inkscape="http://www.inkscape.org/namespaces/inkscape"
   xmlns:sodipodi="http://sodipodi.sourceforge.net/DTD/sodipodi-0.dtd"
   xmlns="http://www.w3.org/2000/svg"
   xmlns:svg="http://www.w3.org/2000/svg">
  <defs
     id="defs1" />
  <sodipodi:namedview
     id="namedview1"
     pagecolor="#ffffff"
     bordercolor="#000000"
     borderopacity="0.25"
     inkscape:showpageshadow="2"
     inkscape:pageopacity="0.0"
     inkscape:pagecheckerboard="0"
     inkscape:deskcolor="#d1d1d1"
     showgrid="true"
     showguides="false"
     inkscape:zoom="8"
     inkscape:cx="46.4375"
     inkscape:cy="44.3125"
     inkscape:window-width="2400"
     inkscape:window-height="1261"
     inkscape:window-x="-9"
     inkscape:window-y="-9"
     inkscape:window-maximized="1"
     inkscape:current-layer="g1">
    <inkscape:grid
       id="grid11"
       units="px"
       originx="0"
       originy="0"
       spacingx="1"
       spacingy="1"
       empcolor="#0099e5"
       empopacity="0.30196078"
       color="#0099e5"
       opacity="0.14901961"
       empspacing="5"
       enabled="true"
       visible="true" />
  </sodipodi:namedview>
  <g
     inkscape:groupmode="layer"
     inkscape:label="Image"
     id="g1">
    <path
       style="fill:#ffffff;fill-opacity:0.99607819;stroke:none;stroke-opacity:0.99607801"
       d="m 36.286427,58.625 19.285041,-0.702015 c 0,0 -6.346556,-36.941857 -49.4128333,-53.7563927 C 1.3597217,1.8902325 25.307825,14.662248 36.286427,58.625 Z"
       id="path4"
       sodipodi:nodetypes="cccc" />
    <path
       style="fill:#ffffff;fill-opacity:0.99607819;stroke:none;stroke-opacity:0.99607801"
       d="m 18.375,9.875 c 0,0 58.925863,28.461552 85.10156,44.066406 C 132.51957,70.909542 26.53933,14.113805 27.25,16.125 25.858776,14.98491 20.686297,11.506022 18.375,9.875 Z"
       id="path5"
       sodipodi:nodetypes="cccc" />
    <path
       id="path6"
       style="fill:#ffffff;stroke-width:1.57964;fill-opacity:0.99607819;stroke:none;stroke-opacity:0.99607801"
       d="M 82.941829,51.625 A 7.1856832,3.1333912 0 0 0 90.096891,54.46875 7.1856832,3.1333912 0 0 0 97.25195,51.625 Z" />
    <path
       sodipodi:type="spiral"
       style="fill:none;fill-opacity:0.8392157;fill-rule:evenodd;stroke:#ffffff;stroke-opacity:0.99607819"
       id="path7"
       sodipodi:cx="83.394409"
       sodipodi:cy="51.530407"
       sodipodi:expansion="1"
       sodipodi:revolution="3"
       sodipodi:radius="7.1174574"
       sodipodi:argument="-15.732803"
       sodipodi:t0="0.89223248"
       d="m 86.357355,57.147245 c -3.122411,1.892111 -7.253368,0.712631 -9.104389,-2.377157 -0.556154,-0.928351 -0.889687,-1.984293 -0.973818,-3.062901"
       transform="matrix(-1.1563922,-0.49508988,-0.66764337,0.85752084,221.91626,45.78254)" />
    <path
       style="fill:#ffffff;fill-opacity:0.99607819;stroke:none;stroke-opacity:0.99607801"
       d="M 79.693246,58.640624 60.408205,57.938609 c 0,0 6.346556,-36.941857 49.412825,-53.7563916 4.79892,-2.27636 -19.149184,10.4956546 -30.127784,54.4584066 z"
       id="path8"
       sodipodi:nodetypes="cccc" />
    <path
       style="fill:#ffffff;fill-opacity:0.99607819;stroke:none;stroke-opacity:0.99607801"
       d="m 97.604676,9.8906236 c 0,0 -58.925866,28.4615524 -85.101561,44.0664064 -29.04301,16.968136 76.937231,-39.827601 76.226558,-37.816406 1.391223,-1.14009 6.563703,-4.618978 8.875003,-6.2500004 z"
       id="path9"
       sodipodi:nodetypes="cccc" />
    <path
       id="path10"
       style="fill:#ffffff;fill-opacity:0.99607819;stroke-width:1.57964;stroke:none;stroke-opacity:0.99607801"
       d="m 33.037844,51.640624 a 7.1856832,3.1333912 0 0 1 -7.155059,2.84375 7.1856832,3.1333912 0 0 1 -7.15506,-2.84375 z" />
    <path
       sodipodi:type="spiral"
       style="fill:none;fill-opacity:0.996078;fill-rule:evenodd;stroke:#ffffff;stroke-opacity:0.99607819"
       id="path11"
       sodipodi:cx="83.394409"
       sodipodi:cy="51.530407"
       sodipodi:expansion="1"
       sodipodi:revolution="3"
       sodipodi:radius="7.1174574"
       sodipodi:argument="-15.732803"
       sodipodi:t0="0.89223248"
       d="m 86.357355,57.147245 c -3.122411,1.892111 -7.253368,0.712631 -9.104389,-2.377157 -0.556154,-0.928351 -0.889687,-1.984293 -0.973818,-3.062901"
       transform="matrix(1.1563922,-0.49508988,0.66764337,0.85752084,-105.9366,45.798164)" />
  </g>
</svg>
